HIERARCHY
ROOT Root
{
  OFFSET 0.0 0.0 0.0
  CHANNELS 6 Xposition Yposition Zposition Zrotation Yrotation Xrotation
  JOINT Hips
  {
    OFFSET 0.0 100.0 0.0
    CHANNELS 6 Xposition Yposition Zposition Zrotation Yrotation Xrotation
    JOINT Spine1
    {
      OFFSET 5.003913 -0.037094 -0.013727
      CHANNELS 3 Zrotation Yrotation Xrotation
      JOINT Spine2
      {
        OFFSET 7.125363 -1e-06 0.0
        CHANNELS 3 Zrotation Yrotation Xrotation
        JOINT Chest
        {
          OFFSET 7.594027 1e-06 0.0
          CHANNELS 3 Zrotation Yrotation Xrotation
          JOINT Neck1
          {
            OFFSET 26.313086 -0.460272 -0.181672
            CHANNELS 3 Zrotation Yrotation Xrotation
            JOINT Neck2
            {
              OFFSET 8.045911 0.0 0.0
              CHANNELS 3 Zrotation Yrotation Xrotation
              JOINT Head
              {
                OFFSET 6.432774 0.0 0.0
                CHANNELS 3 Zrotation Yrotation Xrotation
                JOINT HeadEnd
                {
                  OFFSET 16.169773 0.06451 0.00362
                  CHANNELS 3 Zrotation Yrotation Xrotation
                }
                JOINT Jaw
                {
                  OFFSET 0.108741 3.12938 0.002639
                  CHANNELS 3 Zrotation Yrotation Xrotation
                }
                JOINT LeftEye
                {
                  OFFSET 4.45173 8.166359 3.206392
                  CHANNELS 3 Zrotation Yrotation Xrotation
                }
                JOINT RightEye
                {
                  OFFSET 4.436895 8.135758 -3.222429
                  CHANNELS 3 Zrotation Yrotation Xrotation
                }
              }
            }
          }
          JOINT LeftShoulder
          {
            OFFSET 23.218927 5.195579 1.621656
            CHANNELS 3 Zrotation Yrotation Xrotation
            JOINT LeftArm
            {
              OFFSET 15.902118 2e-06 -2e-06
              CHANNELS 3 Zrotation Yrotation Xrotation
              JOINT LeftForeArm
              {
                OFFSET 28.739307 0.0 -1e-06
                CHANNELS 3 Zrotation Yrotation Xrotation
                JOINT LeftHand
                {
                  OFFSET 27.093981 -4e-06 0.0
                  CHANNELS 3 Zrotation Yrotation Xrotation
                  JOINT LeftHandThumb1
                  {
                    OFFSET 2.276781 3.380274 0.83384
                    CHANNELS 3 Zrotation Yrotation Xrotation
                    JOINT LeftHandThumb2
                    {
                      OFFSET 4.705309 -1e-06 -1e-06
                      CHANNELS 3 Zrotation Yrotation Xrotation
                      JOINT LeftHandThumb3
                      {
                        OFFSET 2.798515 0.0 3e-06
                        CHANNELS 3 Zrotation Yrotation Xrotation
                        JOINT LeftHandThumbEnd
                        {
                          OFFSET 3.180793 4e-06 -4e-06
                          CHANNELS 3 Zrotation Yrotation Xrotation
                        }
                      }
                    }
                  }
                  JOINT LeftHandIndex1
                  {
                    OFFSET 3.247786 2.352677 0.137192
                    CHANNELS 3 Zrotation Yrotation Xrotation
                    JOINT LeftHandIndex2
                    {
                      OFFSET 6.367095 1e-06 0.0
                      CHANNELS 3 Zrotation Yrotation Xrotation
                      JOINT LeftHandIndex3
                      {
                        OFFSET 3.662364 0.0 0.0
                        CHANNELS 3 Zrotation Yrotation Xrotation
                        JOINT LeftHandIndex4
                        {
                          OFFSET 2.329242 4e-06 -4e-06
                          CHANNELS 3 Zrotation Yrotation Xrotation
                          JOINT LeftHandIndexEnd
                          {
                            OFFSET 2.767823 1e-06 0.0
                            CHANNELS 3 Zrotation Yrotation Xrotation
                          }
                        }
                      }
                    }
                  }
                  JOINT LeftHandMiddle1
                  {
                    OFFSET 3.163612 0.945023 -0.406112
                    CHANNELS 3 Zrotation Yrotation Xrotation
                    JOINT LeftHandMiddle2
                    {
                      OFFSET 6.276789 3e-06 0.0
                      CHANNELS 3 Zrotation Yrotation Xrotation
                      JOINT LeftHandMiddle3
                      {
                        OFFSET 4.35652 -1e-06 4e-06
                        CHANNELS 3 Zrotation Yrotation Xrotation
                        JOINT LeftHandMiddle4
                        {
                          OFFSET 2.996877 0.0 8e-06
                          CHANNELS 3 Zrotation Yrotation Xrotation
                          JOINT LeftHandMiddleEnd
                          {
                            OFFSET 2.323256 3e-06 -4e-06
                            CHANNELS 3 Zrotation Yrotation Xrotation
                          }
                        }
                      }
                    }
                  }
                  JOINT LeftHandRing1
                  {
                    OFFSET 2.882606 -0.309162 0.107445
                    CHANNELS 3 Zrotation Yrotation Xrotation
                    JOINT LeftHandRing2
                    {
                      OFFSET 6.033198 0.0 4e-06
                      CHANNELS 3 Zrotation Yrotation Xrotation
                      JOINT LeftHandRing3
                      {
                        OFFSET 4.350578 3e-06 0.0
                        CHANNELS 3 Zrotation Yrotation Xrotation
                        JOINT LeftHandRing4
                        {
                          OFFSET 2.651321 2e-06 -7e-06
                          CHANNELS 3 Zrotation Yrotation Xrotation
                          JOINT LeftHandRingEnd
                          {
                            OFFSET 1.937663 1e-06 -4e-06
                            CHANNELS 3 Zrotation Yrotation Xrotation
                          }
                        }
                      }
                    }
                  }
                  JOINT LeftHandPinky1
                  {
                    OFFSET 2.865315 -1.525436 0.575687
                    CHANNELS 3 Zrotation Yrotation Xrotation
                    JOINT LeftHandPinky2
                    {
                      OFFSET 5.54936 1e-06 -8e-06
                      CHANNELS 3 Zrotation Yrotation Xrotation
                      JOINT LeftHandPinky3
                      {
                        OFFSET 3.070974 0.0 -4e-06
                        CHANNELS 3 Zrotation Yrotation Xrotation
                        JOINT LeftHandPinky4
                        {
                          OFFSET 1.549672 1e-06 0.0
                          CHANNELS 3 Zrotation Yrotation Xrotation
                          JOINT LeftHandPinkyEnd
                          {
                            OFFSET 1.952123 0.0 0.0
                            CHANNELS 3 Zrotation Yrotation Xrotation
                          }
                        }
                      }
                    }
                  }
                }
              }
            }
          }
          JOINT RightShoulder
          {
            OFFSET 23.161716 5.296122 -1.380114
            CHANNELS 3 Zrotation Yrotation Xrotation
            JOINT RightArm
            {
              OFFSET -16.027195 -2e-06 1.1e-05
              CHANNELS 3 Zrotation Yrotation Xrotation
              JOINT RightForeArm
              {
                OFFSET -28.736639 4e-06 2e-06
                CHANNELS 3 Zrotation Yrotation Xrotation
                JOINT RightHand
                {
                  OFFSET -27.133619 6e-06 0.0
                  CHANNELS 3 Zrotation Yrotation Xrotation
                  JOINT RightHandThumb1
                  {
                    OFFSET -2.274328 -3.351035 -0.83067
                    CHANNELS 3 Zrotation Yrotation Xrotation
                    JOINT RightHandThumb2
                    {
                      OFFSET -4.703594 -3e-06 2e-06
                      CHANNELS 3 Zrotation Yrotation Xrotation
                      JOINT RightHandThumb3
                      {
                        OFFSET -2.794935 -4e-06 -3e-06
                        CHANNELS 3 Zrotation Yrotation Xrotation
                        JOINT RightHandThumbEnd
                        {
                          OFFSET -3.183852 4e-06 1e-06
                          CHANNELS 3 Zrotation Yrotation Xrotation
                        }
                      }
                    }
                  }
                  JOINT RightHandIndex1
                  {
                    OFFSET -3.253496 -2.33755 -0.127667
                    CHANNELS 3 Zrotation Yrotation Xrotation
                    JOINT RightHandIndex2
                    {
                      OFFSET -6.344434 0.0 0.0
                      CHANNELS 3 Zrotation Yrotation Xrotation
                      JOINT RightHandIndex3
                      {
                        OFFSET -3.654871 0.0 -8e-06
                        CHANNELS 3 Zrotation Yrotation Xrotation
                        JOINT RightHandIndex4
                        {
                          OFFSET -2.327586 -1e-06 0.0
                          CHANNELS 3 Zrotation Yrotation Xrotation
                          JOINT RightHandIndexEnd
                          {
                            OFFSET -2.770001 3e-06 8e-06
                            CHANNELS 3 Zrotation Yrotation Xrotation
                          }
                        }
                      }
                    }
                  }
                  JOINT RightHandMiddle1
                  {
                    OFFSET -3.168223 -0.944764 0.411762
                    CHANNELS 3 Zrotation Yrotation Xrotation
                    JOINT RightHandMiddle2
                    {
                      OFFSET -6.266691 -1e-06 -4e-06
                      CHANNELS 3 Zrotation Yrotation Xrotation
                      JOINT RightHandMiddle3
                      {
                        OFFSET -4.348901 0.0 0.0
                        CHANNELS 3 Zrotation Yrotation Xrotation
                        JOINT RightHandMiddle4
                        {
                          OFFSET -3.00024 2e-06 -4e-06
                          CHANNELS 3 Zrotation Yrotation Xrotation
                          JOINT RightHandMiddleEnd
                          {
                            OFFSET -2.321477 -4e-06 -4e-06
                            CHANNELS 3 Zrotation Yrotation Xrotation
                          }
                        }
                      }
                    }
                  }
                  JOINT RightHandRing1
                  {
                    OFFSET -2.885654 0.293261 -0.119232
                    CHANNELS 3 Zrotation Yrotation Xrotation
                    JOINT RightHandRing2
                    {
                      OFFSET -6.032835 -1e-06 -4e-06
                      CHANNELS 3 Zrotation Yrotation Xrotation
                      JOINT RightHandRing3
                      {
                        OFFSET -4.33881 0.0 -4e-06
                        CHANNELS 3 Zrotation Yrotation Xrotation
                        JOINT RightHandRing4
                        {
                          OFFSET -2.654903 -4e-06 -4e-06
                          CHANNELS 3 Zrotation Yrotation Xrotation
                          JOINT RightHandRingEnd
                          {
                            OFFSET -1.935122 0.0 4e-06
                            CHANNELS 3 Zrotation Yrotation Xrotation
                          }
                        }
                      }
                    }
                  }
                  JOINT RightHandPinky1
                  {
                    OFFSET -2.866241 1.503904 -0.60527
                    CHANNELS 3 Zrotation Yrotation Xrotation
                    JOINT RightHandPinky2
                    {
                      OFFSET -5.553177 -2e-06 0.0
                      CHANNELS 3 Zrotation Yrotation Xrotation
                      JOINT RightHandPinky3
                      {
                        OFFSET -3.062664 -1e-06 -4e-06
                        CHANNELS 3 Zrotation Yrotation Xrotation
                        JOINT RightHandPinky4
                        {
                          OFFSET -1.546529 2e-06 4e-06
                          CHANNELS 3 Zrotation Yrotation Xrotation
                          JOINT RightHandPinkyEnd
                          {
                            OFFSET -1.952341 0.0 -4e-06
                            CHANNELS 3 Zrotation Yrotation Xrotation
                          }
                        }
                      }
                    }
                  }
                }
              }
            }
          }
        }
      }
    }
    JOINT LeftLeg
    {
      OFFSET -8.443107 2.567604 10.043214
      CHANNELS 3 Zrotation Yrotation Xrotation
      JOINT LeftShin
      {
        OFFSET 43.229198 1e-06 -1e-06
        CHANNELS 3 Zrotation Yrotation Xrotation
        JOINT LeftFoot
        {
          OFFSET 42.298611 1e-06 1e-06
          CHANNELS 3 Zrotation Yrotation Xrotation
          JOINT LeftToeBase
          {
            OFFSET 14.165858 1e-06 0.0
            CHANNELS 3 Zrotation Yrotation Xrotation
            JOINT LeftToeEnd
            {
              OFFSET 6.7141 -0.234461 0.0
              CHANNELS 3 Zrotation Yrotation Xrotation
            }
          }
        }
      }
    }
    JOINT RightLeg
    {
      OFFSET -8.303923 2.592729 -10.047278
      CHANNELS 3 Zrotation Yrotation Xrotation
      JOINT RightShin
      {
        OFFSET -43.369682 0.0 1e-06
        CHANNELS 3 Zrotation Yrotation Xrotation
        JOINT RightFoot
        {
          OFFSET -42.260784 4e-06 2e-06
          CHANNELS 3 Zrotation Yrotation Xrotation
          JOINT RightToeBase
          {
            OFFSET -14.222245 -2e-06 -1e-06
            CHANNELS 3 Zrotation Yrotation Xrotation
            JOINT RightToeEnd
            {
              OFFSET -6.660062 0.232574 -2e-06
              CHANNELS 3 Zrotation Yrotation Xrotation
            }
          }
        }
      }
    }
  }
}
MOTION
Frames: 4
Frame Time: 0.03333333333333333
0.0 0.0 0.0 0.0 -0.0 0.0 -1.341744 48.949059 6.43755 90.49501 -52.615868 88.052002 21.339384 -0.289349 0.100466 -3.761864 -0.273724 0.714921 12.774227 -0.759604 -2.453747 12.177211 6.0573 4.347805 -2.709391 -0.4186 1.341448 -23.263206 -1.186511 2.204818 6e-06 0.0 -0.0 -0.235384 0.052609 -0.013951 -0.074534 0.151447 -0.045638 -0.112926 -0.04497 0.024199 -1.851122 -71.542992 2.507719 87.771797 -13.344543 -52.630699 9.620081 0.325325 0.045483 62.12167 67.073807 65.66124 17.636627 -26.322737 52.411194 -19.466661 -14.395594 29.410389 -1e-06 -8.774819 -1e-06 14.992845 -17.726358 6.385807 -0.609778 -1.795654 -3.889326 -4.807087 -11.046811 -2.937851 4e-06 -20.976015 1e-06 -5.01997 -25.03356 -4.03188 6e-06 1e-06 0.0 -10.634532 -5.686971 -3.565588 10.573271 -17.922951 -3.113899 2e-06 -13.821209 -0.0 -0.501777 -31.181501 -4.027016 -10.53034 -57.950691 6.13148 -13.982711 -7.150198 -2.875042 13.772724 -8.40149 -3.21824 0.347732 -34.211544 0.771654 -0.963029 -17.733366 2.621019 -1e-06 -0.0 0.0 -17.346416 -20.095217 -4.201782 21.757555 -1.638375 3.866427 0.0 -6.338825 1e-06 -1.69759 -22.591747 -6.194006 -1e-06 -5e-06 -2e-06 176.087997 -64.10836 -0.144511 85.204842 -10.809108 -39.469231 9.238184 -0.970355 -0.060838 -5.892534 58.164505 -14.362967 22.182114 -20.375898 49.933319 -16.701818 -16.743528 28.476532 -4e-06 -12.6906 -1e-06 16.06361 -17.865156 2.515678 -0.105918 -1.513858 -4.275883 -5.03904 -5.612868 -2.953556 3e-06 -11.020525 -2e-06 -6.111298 -15.895332 -3.840471 0.0 2e-06 0.0 -10.283367 -5.680288 -4.34184 11.028294 -11.302407 -2.372633 -1.384269 -14.238583 -6.32012 -0.625437 -26.924194 -3.827603 -4.40268 -49.068256 -3.869669 -13.708524 -7.363478 -3.72094 18.14115 -14.052737 -3.242675 6e-06 -18.78727 -2e-06 -0.429711 -8.456044 2.555504 0.0 1e-06 0.0 -15.923532 -20.094482 -5.473585 30.41921 -7.190826 1.735924 1e-06 -8.162929 -1e-06 -1.861901 -22.861473 -6.167943 0.0 -3e-06 -1e-06 118.593613 -3.792609 9.968872 114.309097 0.275904 0.37438 -53.260689 8.325609 -15.838217 -6.216482 1.394199 2.731339 -0.999998 0.0 -0.0 -52.56786 -4.064512 -6.479731 108.420425 -0.423714 0.124306 -61.415684 0.864705 -12.69482 -6.275895 0.642202 1.953591 -1.000001 0.0 0.0 
0.0 0.0 0.0 0.0 -0.0 0.0 -1.246547 48.943668 6.476139 90.170876 -52.652145 88.248276 21.28381 -0.19628 0.16582 -3.811535 -0.227202 0.763221 12.841543 -0.683565 -2.344926 12.202935 5.98716 4.222629 -2.706613 -0.43455 1.297983 -23.126179 -1.154948 2.150937 7e-06 -0.0 0.0 -0.237022 0.022243 -0.008134 -0.069815 0.119464 -0.035483 -0.111465 -0.071744 0.023085 -1.560526 -71.672348 2.389213 88.032188 -13.209814 -52.852619 9.33945 0.45038 0.056106 62.815468 66.621765 66.071571 17.636625 -26.322729 52.41119 -19.46666 -14.395597 29.410389 -1e-06 -8.77482 -1e-06 14.986725 -17.800154 6.424617 -0.609775 -1.795654 -3.889326 -4.80709 -11.046812 -2.937851 5e-06 -20.976017 1e-06 -5.01997 -25.03356 -4.031882 6e-06 1e-06 0.0 -10.634535 -5.686971 -3.565587 10.573275 -17.922951 -3.1139 3e-06 -13.821206 -0.0 -0.501777 -31.181505 -4.027017 -10.470639 -58.183041 6.207387 -13.982714 -7.150198 -2.875042 13.772731 -8.401489 -3.218241 0.347734 -34.211544 0.771653 -0.963029 -17.733366 2.621021 0.0 -0.0 -1e-06 -17.346416 -20.095217 -4.201782 21.757557 -1.638376 3.866428 1e-06 -6.338823 0.0 -1.697588 -22.591742 -6.194006 -1e-06 -6e-06 -2e-06 176.057068 -64.02227 0.032666 85.125557 -10.655124 -39.366886 9.071233 -0.897456 -0.049452 -5.648323 57.871811 -14.293133 22.182106 -20.375895 49.933315 -16.701807 -16.743525 28.476522 -3e-06 -12.690598 -1e-06 16.061192 -17.856487 2.5696 -0.105919 -1.513856 -4.275881 -5.039037 -5.612868 -2.953554 2e-06 -11.02052 -3e-06 -6.111295 -15.895328 -3.84047 1e-06 1e-06 -1e-06 -10.283369 -5.680289 -4.341837 11.028293 -11.302402 -2.372631 -1.384268 -14.238577 -6.32012 -0.625436 -26.924185 -3.827603 -4.411398 -49.303986 -3.699404 -13.708523 -7.363473 -3.720938 18.141144 -14.052735 -3.242673 5e-06 -18.787266 -1e-06 -0.429712 -8.456041 2.555506 0.0 1e-06 0.0 -15.923534 -20.094479 -5.473584 30.419205 -7.190824 1.735927 2e-06 -8.162928 -2e-06 -1.861904 -22.861464 -6.16794 -1e-06 -3e-06 -0.0 118.591209 -3.841417 10.073326 114.35231 0.261322 0.389175 -53.367729 8.158006 -15.665623 -6.200565 1.422271 2.718749 -0.999999 0.0 -0.0 -52.551525 -4.026582 -6.5868 108.268723 -0.398678 0.121483 -60.988247 0.798325 -12.656058 -6.18008 0.640374 1.953116 -1.000001 0.0 -0.0 
0.0 0.0 0.0 0.0 -0.0 0.0 -1.156116 48.927429 6.496078 90.036819 -52.624344 88.330482 21.22588 -0.13459 0.214685 -3.855134 -0.192046 0.817866 12.940829 -0.664842 -2.288601 12.285232 5.975165 4.063012 -2.715134 -0.469754 1.292435 -23.087599 -1.165686 2.138659 7e-06 0.0 0.0 -0.232589 -0.004058 -0.000281 -0.114081 0.091228 -0.037403 -0.149545 -0.094897 0.036594 -1.149666 -71.699669 2.137096 88.176071 -13.121797 -52.815533 9.171493 0.518004 0.063462 63.005333 66.486221 65.899559 17.636621 -26.322729 52.411205 -19.466661 -14.395598 29.410395 -2e-06 -8.774821 -1e-06 15.009407 -17.835545 6.416168 -0.609775 -1.795653 -3.889328 -4.807088 -11.046807 -2.93785 6e-06 -20.976015 -0.0 -5.019967 -25.033558 -4.031883 6e-06 2e-06 -0.0 -10.634531 -5.686968 -3.565588 10.573272 -17.922947 -3.113901 4e-06 -13.821205 -1e-06 -0.501774 -31.181498 -4.027017 -10.388627 -58.31813 6.217031 -13.982712 -7.150196 -2.875043 13.772731 -8.401491 -3.218242 0.347738 -34.211544 0.771651 -0.963028 -17.733368 2.621021 0.0 -0.0 1e-06 -17.346416 -20.095213 -4.201784 21.757559 -1.638376 3.866428 1e-06 -6.338824 1e-06 -1.697586 -22.591742 -6.194008 -0.0 -5e-06 -1e-06 176.274857 -63.960831 0.046225 84.855194 -10.482491 -39.216938 9.053804 -0.882593 -0.04747 -5.523563 57.728821 -14.233663 22.182104 -20.375885 49.933308 -16.701811 -16.743528 28.476528 -4e-06 -12.690597 -0.0 16.0464 -17.793659 2.615881 -0.105919 -1.513854 -4.275882 -5.039038 -5.612869 -2.953555 3e-06 -11.02052 -3e-06 -6.111292 -15.895329 -3.840472 0.0 2e-06 2e-06 -10.283367 -5.680287 -4.341839 11.028292 -11.302402 -2.372633 -1.384268 -14.238577 -6.32012 -0.625433 -26.924179 -3.827606 -4.363946 -49.39859 -3.595996 -13.708523 -7.363474 -3.720939 18.141146 -14.052736 -3.242676 7e-06 -18.787262 -3e-06 -0.429711 -8.456039 2.555501 1e-06 -1e-06 1e-06 -15.923528 -20.094479 -5.473585 30.419205 -7.190823 1.735923 3e-06 -8.162927 -2e-06 -1.861899 -22.861464 -6.16794 -1e-06 -3e-06 -0.0 118.660713 -3.828689 10.076461 114.426651 0.264868 0.405815 -53.657173 7.998815 -15.558997 -6.289795 1.438532 2.709515 -0.999997 0.0 -0.0 -52.490662 -4.069239 -6.601058 108.206345 -0.389264 0.133164 -60.75898 0.893649 -12.603722 -6.223016 0.627846 1.965384 -0.999999 -0.0 -0.0 
0.0 0.0 0.0 0.0 -0.0 0.0 -1.097828 48.907261 6.498602 89.974365 -52.61235 88.404938 21.165846 -0.091045 0.244998 -3.892579 -0.172759 0.851083 13.026654 -0.630251 -2.277781 12.35064 5.983435 3.913972 -2.717381 -0.508197 1.294001 -23.12739 -1.182641 2.163324 6e-06 -0.0 -0.0 -0.229323 -0.025769 0.007249 -0.167051 0.071299 -0.043853 -0.194388 -0.118406 0.05565 -0.839272 -71.728333 1.968831 88.272278 -13.075624 -52.821243 9.095252 0.575398 0.061143 63.308285 66.381187 66.03331 17.636627 -26.322735 52.411205 -19.466665 -14.395598 29.410393 -2e-06 -8.774821 -1e-06 14.988043 -17.836643 6.41791 -0.609777 -1.795653 -3.889329 -4.807091 -11.046813 -2.937851 5e-06 -20.976021 -0.0 -5.019969 -25.033562 -4.031884 6e-06 1e-06 -0.0 -10.634536 -5.686972 -3.565588 10.573275 -17.922956 -3.113901 3e-06 -13.821213 -0.0 -0.501776 -31.181505 -4.02702 -10.330051 -58.340439 6.187834 -13.982714 -7.150199 -2.875042 13.772729 -8.401493 -3.21824 0.347734 -34.211555 0.771652 -0.963028 -17.733372 2.621019 -0.0 -0.0 -0.0 -17.346422 -20.095221 -4.201783 21.757557 -1.638376 3.866427 1e-06 -6.338826 0.0 -1.697588 -22.591751 -6.194009 0.0 -6e-06 -3e-06 176.477768 -63.89138 0.025977 84.582779 -10.364666 -39.044083 9.134052 -0.867858 -0.050247 -5.573877 57.64793 -14.300929 22.182117 -20.375898 49.933327 -16.701818 -16.74353 28.476534 -6e-06 -12.690601 0.0 16.047276 -17.741188 2.652876 -0.105921 -1.513855 -4.275882 -5.039039 -5.612871 -2.953556 4e-06 -11.020527 -2e-06 -6.111297 -15.895334 -3.840471 -1e-06 1e-06 1e-06 -10.28337 -5.680285 -4.341839 11.028297 -11.302406 -2.372635 -1.384267 -14.238583 -6.320121 -0.625435 -26.924187 -3.827601 -4.325885 -49.469784 -3.519953 -13.708523 -7.363473 -3.72094 18.141151 -14.052739 -3.242675 7e-06 -18.78727 -1e-06 -0.429711 -8.456045 2.555505 0.0 1e-06 -0.0 -15.923534 -20.094481 -5.473588 30.419214 -7.19083 1.735926 3e-06 -8.162929 -1e-06 -1.861901 -22.861467 -6.16794 -1e-06 -3e-06 -0.0 118.693077 -3.772045 10.099792 114.524048 0.276419 0.419398 -54.038464 7.923936 -15.494637 -6.461949 1.449835 2.700263 -0.999999 -0.0 0.0 -52.457016 -4.156152 -6.616144 108.201218 -0.369283 0.145784 -60.681339 0.979532 -12.584552 -6.272738 0.610866 1.982422 -1.000001 -0.0 -0.0 
